# xmcd
# 
# Track frame offsets:
#     150
#     24495
#     36965
#     59900
#     79082
#     98327
#     115257
#     139785
#     153615
#     166727
# 
# Disc length: 2363
# 
# Revision: 65
# Processed by: cddbd v1.5.2PL0 Copyright (c) Steve Scherf et al.
# Submitted via: fre:ac v1.0.27
# 
DISCID=7c09390a
DTITLE=Getz Stan And Gilberto Joao - Getz - Gilberto
DYEAR=1963
DGENRE=Jazz
TTITLE0=The Girl From Ipanema
TTITLE1=Doralice
TTITLE2=Para Machucar Meu Coracao
TTITLE3=Desafinado (Off Key)
TTITLE4=Corcovado (Quiet Nights Of Quiet Stars)
TTITLE5=So Danco Samba
TTITLE6=O Grande Amor
TTITLE7=Vivo Sonhando (Dreamer)
TTITLE8=The Girl From Ipanema (45rpm Issue)
TTITLE9=Corcovado (Quiet Nights Of Quiet Stars) (45rpm Issue)
EXTD=YEAR: 1963
EXTT0=
EXTT1=
EXTT2=
EXTT3=
EXTT4=
EXTT5=
EXTT6=
EXTT7=
EXTT8=
EXTT9=
PLAYORDER=
